<?plantuml 1.2026.2?><svg xmlns="http://www.w3.org/2000/svg" xmlns:xlink="http://www.w3.org/1999/xlink" contentStyleType="text/css" data-diagram-type="ACTIVITY" height="539px" preserveAspectRatio="none" style="width:432px;height:539px;background:#FFFFFF;" version="1.1" viewBox="0 0 432 539" width="432px" zoomAndPan="magnify"><title>UML &#8212; Activity Diagram</title><defs/><g><g class="title" data-source-line="1"><text fill="#000000" font-family="sans-serif" font-size="14" font-weight="bold" lengthAdjust="spacing" textLength="170.6033" x="129.5129" y="34.9659">UML &#8212; Activity Diagram</text></g><ellipse cx="255.8497" cy="60.0679" fill="#222222" rx="10" ry="10" style="stroke:#222222;stroke-width:1;"/><rect fill="#F1F1F1" height="36.3441" rx="12.5" ry="12.5" style="stroke:#181818;stroke-width:0.5;" width="99.2726" x="206.2134" y="90.0679"/><text fill="#000000" font-family="sans-serif" font-size="12" lengthAdjust="spacing" textLength="79.2726" x="216.2134" y="112.896">Receive Order</text><polygon fill="#F1F1F1" points="233.2448,146.412,278.4545,146.412,290.4545,158.412,278.4545,170.412,233.2448,170.412,221.2448,158.412,233.2448,146.412" style="stroke:#181818;stroke-width:0.5;"/><text fill="#000000" font-family="sans-serif" font-size="11" lengthAdjust="spacing" textLength="45.2097" x="233.2448" y="162.68">In stock?</text><text fill="#000000" font-family="sans-serif" font-size="11" lengthAdjust="spacing" textLength="17.0829" x="204.162" y="155.1891">yes</text><text fill="#000000" font-family="sans-serif" font-size="11" lengthAdjust="spacing" textLength="13.4529" x="290.4545" y="155.1891">no</text><rect fill="#555555" height="6" rx="2.5" ry="2.5" style="stroke:#555555;stroke-width:1;" width="268.7772" x="11" y="180.412"/><rect fill="#F1F1F1" height="36.3441" rx="12.5" ry="12.5" style="stroke:#181818;stroke-width:0.5;" width="98.8526" x="25" y="206.412"/><text fill="#000000" font-family="sans-serif" font-size="12" lengthAdjust="spacing" textLength="78.8526" x="35" y="229.2401">Reserve items</text><rect fill="#F1F1F1" height="36.3441" rx="12.5" ry="12.5" style="stroke:#181818;stroke-width:0.5;" width="113.9247" x="151.8526" y="206.412"/><text fill="#000000" font-family="sans-serif" font-size="12" lengthAdjust="spacing" textLength="93.9247" x="161.8526" y="229.2401">Charge payment</text><rect fill="#555555" height="6" rx="2.5" ry="2.5" style="stroke:#555555;stroke-width:1;" width="268.7772" x="11" y="262.7561"/><polygon fill="#F1F1F1" points="111.0249,303.7561,179.7524,303.7561,191.7524,315.7561,179.7524,327.7561,111.0249,327.7561,99.0249,315.7561,111.0249,303.7561" style="stroke:#181818;stroke-width:0.5;"/><text fill="#000000" font-family="sans-serif" font-size="11" lengthAdjust="spacing" textLength="68.7275" x="111.0249" y="320.0241">Payment OK?</text><text fill="#000000" font-family="sans-serif" font-size="11" lengthAdjust="spacing" textLength="17.0829" x="81.942" y="312.5332">yes</text><text fill="#000000" font-family="sans-serif" font-size="11" lengthAdjust="spacing" textLength="13.4529" x="191.7524" y="312.5332">no</text><rect fill="#F1F1F1" height="36.3441" rx="12.5" ry="12.5" style="stroke:#181818;stroke-width:0.5;" width="80.6004" x="34.781" y="337.7561"/><text fill="#000000" font-family="sans-serif" font-size="12" lengthAdjust="spacing" textLength="60.6004" x="44.781" y="360.5842">Pack order</text><rect fill="#F1F1F1" height="36.3441" rx="12.5" ry="12.5" style="stroke:#181818;stroke-width:0.5;" width="78.9204" x="35.621" y="394.1003"/><text fill="#000000" font-family="sans-serif" font-size="12" lengthAdjust="spacing" textLength="58.9204" x="45.621" y="416.9283">Ship order</text><rect fill="#F1F1F1" height="36.3441" rx="12.5" ry="12.5" style="stroke:#181818;stroke-width:0.5;" width="110.6367" x="19.7629" y="450.4444"/><text fill="#000000" font-family="sans-serif" font-size="12" lengthAdjust="spacing" textLength="90.6367" x="29.7629" y="473.2725">Notify customer</text><ellipse cx="75.0812" cy="517.7885" fill="none" rx="11" ry="11" style="stroke:#222222;stroke-width:1;"/><ellipse cx="75.0812" cy="517.7885" fill="#222222" rx="6" ry="6" style="stroke:#222222;stroke-width:1;"/><rect fill="#F1F1F1" height="36.3441" rx="12.5" ry="12.5" style="stroke:#181818;stroke-width:0.5;" width="130.5928" x="150.3996" y="337.7561"/><text fill="#000000" font-family="sans-serif" font-size="12" lengthAdjust="spacing" textLength="110.5928" x="160.3996" y="360.5842">Release reservation</text><rect fill="#F1F1F1" height="36.3441" rx="12.5" ry="12.5" style="stroke:#181818;stroke-width:0.5;" width="93.3685" x="169.0117" y="394.1003"/><text fill="#000000" font-family="sans-serif" font-size="12" lengthAdjust="spacing" textLength="73.3685" x="179.0117" y="416.9283">Notify failure</text><ellipse cx="215.696" cy="461.4444" fill="none" rx="11" ry="11" style="stroke:#222222;stroke-width:1;"/><ellipse cx="215.696" cy="461.4444" fill="#222222" rx="6" ry="6" style="stroke:#222222;stroke-width:1;"/><rect fill="#F1F1F1" height="36.3441" rx="12.5" ry="12.5" style="stroke:#181818;stroke-width:0.5;" width="78.0204" x="327.3005" y="180.412"/><text fill="#000000" font-family="sans-serif" font-size="12" lengthAdjust="spacing" textLength="58.0204" x="337.3005" y="203.2401">Backorder</text><rect fill="#F1F1F1" height="36.3441" rx="12.5" ry="12.5" style="stroke:#181818;stroke-width:0.5;" width="110.6367" x="310.9924" y="251.7561"/><text fill="#000000" font-family="sans-serif" font-size="12" lengthAdjust="spacing" textLength="90.6367" x="320.9924" y="274.5842">Notify customer</text><ellipse cx="366.3107" cy="334.1003" fill="none" rx="11" ry="11" style="stroke:#222222;stroke-width:1;"/><ellipse cx="366.3107" cy="334.1003" fill="#222222" rx="6" ry="6" style="stroke:#222222;stroke-width:1;"/><line style="stroke:#181818;stroke-width:1;" x1="255.8497" x2="255.8497" y1="70.0679" y2="90.0679"/><polygon fill="#181818" points="251.8497,80.0679,255.8497,90.0679,259.8497,80.0679,255.8497,84.0679" style="stroke:#181818;stroke-width:1;"/><line style="stroke:#181818;stroke-width:1;" x1="74.4263" x2="74.4263" y1="186.412" y2="206.412"/><polygon fill="#181818" points="70.4263,196.412,74.4263,206.412,78.4263,196.412,74.4263,200.412" style="stroke:#181818;stroke-width:1;"/><line style="stroke:#181818;stroke-width:1;" x1="208.8149" x2="208.8149" y1="186.412" y2="206.412"/><polygon fill="#181818" points="204.8149,196.412,208.8149,206.412,212.8149,196.412,208.8149,200.412" style="stroke:#181818;stroke-width:1;"/><line style="stroke:#181818;stroke-width:1;" x1="74.4263" x2="74.4263" y1="242.7561" y2="262.7561"/><polygon fill="#181818" points="70.4263,252.7561,74.4263,262.7561,78.4263,252.7561,74.4263,256.7561" style="stroke:#181818;stroke-width:1;"/><line style="stroke:#181818;stroke-width:1;" x1="208.8149" x2="208.8149" y1="242.7561" y2="262.7561"/><polygon fill="#181818" points="204.8149,252.7561,208.8149,262.7561,212.8149,252.7561,208.8149,256.7561" style="stroke:#181818;stroke-width:1;"/><line style="stroke:#181818;stroke-width:1;" x1="75.0812" x2="75.0812" y1="374.1003" y2="394.1003"/><polygon fill="#181818" points="71.0812,384.1003,75.0812,394.1003,79.0812,384.1003,75.0812,388.1003" style="stroke:#181818;stroke-width:1;"/><line style="stroke:#181818;stroke-width:1;" x1="75.0812" x2="75.0812" y1="430.4444" y2="450.4444"/><polygon fill="#181818" points="71.0812,440.4444,75.0812,450.4444,79.0812,440.4444,75.0812,444.4444" style="stroke:#181818;stroke-width:1;"/><line style="stroke:#181818;stroke-width:1;" x1="75.0812" x2="75.0812" y1="486.7885" y2="506.7885"/><polygon fill="#181818" points="71.0812,496.7885,75.0812,506.7885,79.0812,496.7885,75.0812,500.7885" style="stroke:#181818;stroke-width:1;"/><line style="stroke:#181818;stroke-width:1;" x1="215.696" x2="215.696" y1="374.1003" y2="394.1003"/><polygon fill="#181818" points="211.696,384.1003,215.696,394.1003,219.696,384.1003,215.696,388.1003" style="stroke:#181818;stroke-width:1;"/><line style="stroke:#181818;stroke-width:1;" x1="215.696" x2="215.696" y1="430.4444" y2="450.4444"/><polygon fill="#181818" points="211.696,440.4444,215.696,450.4444,219.696,440.4444,215.696,444.4444" style="stroke:#181818;stroke-width:1;"/><line style="stroke:#181818;stroke-width:1;" x1="99.0249" x2="75.0812" y1="315.7561" y2="315.7561"/><line style="stroke:#181818;stroke-width:1;" x1="75.0812" x2="75.0812" y1="315.7561" y2="337.7561"/><polygon fill="#181818" points="71.0812,327.7561,75.0812,337.7561,79.0812,327.7561,75.0812,331.7561" style="stroke:#181818;stroke-width:1;"/><line style="stroke:#181818;stroke-width:1;" x1="191.7524" x2="215.696" y1="315.7561" y2="315.7561"/><line style="stroke:#181818;stroke-width:1;" x1="215.696" x2="215.696" y1="315.7561" y2="337.7561"/><polygon fill="#181818" points="211.696,327.7561,215.696,337.7561,219.696,327.7561,215.696,331.7561" style="stroke:#181818;stroke-width:1;"/><line style="stroke:#181818;stroke-width:1;" x1="145.3886" x2="145.3886" y1="268.7561" y2="303.7561"/><polygon fill="#181818" points="141.3886,293.7561,145.3886,303.7561,149.3886,293.7561,145.3886,297.7561" style="stroke:#181818;stroke-width:1;"/><line style="stroke:#181818;stroke-width:1;" x1="366.3107" x2="366.3107" y1="216.7561" y2="251.7561"/><polygon fill="#181818" points="362.3107,241.7561,366.3107,251.7561,370.3107,241.7561,366.3107,245.7561" style="stroke:#181818;stroke-width:1;"/><line style="stroke:#181818;stroke-width:1;" x1="366.3107" x2="366.3107" y1="288.1003" y2="323.1003"/><polygon fill="#181818" points="362.3107,313.1003,366.3107,323.1003,370.3107,313.1003,366.3107,317.1003" style="stroke:#181818;stroke-width:1;"/><line style="stroke:#181818;stroke-width:1;" x1="221.2448" x2="145.3886" y1="158.412" y2="158.412"/><line style="stroke:#181818;stroke-width:1;" x1="145.3886" x2="145.3886" y1="158.412" y2="180.412"/><polygon fill="#181818" points="141.3886,170.412,145.3886,180.412,149.3886,170.412,145.3886,174.412" style="stroke:#181818;stroke-width:1;"/><line style="stroke:#181818;stroke-width:1;" x1="290.4545" x2="366.3107" y1="158.412" y2="158.412"/><line style="stroke:#181818;stroke-width:1;" x1="366.3107" x2="366.3107" y1="158.412" y2="180.412"/><polygon fill="#181818" points="362.3107,170.412,366.3107,180.412,370.3107,170.412,366.3107,174.412" style="stroke:#181818;stroke-width:1;"/><line style="stroke:#181818;stroke-width:1;" x1="255.8497" x2="255.8497" y1="126.412" y2="146.412"/><polygon fill="#181818" points="251.8497,136.412,255.8497,146.412,259.8497,136.412,255.8497,140.412" style="stroke:#181818;stroke-width:1;"/><?plantuml-src ROvBRiCm34JtEiKixIiaYwAVJT5FWWOz025JDc5RCYGcW7SvH4_OarIsww8kkY8nvCmy5UqOxo_F-Bn-uDQgN4H7F0ZLaNfZab9KitjZot9X76B5SM-CE1IF7ac3RMzAQCCUnSYfD80BiSq3oAx4CRj4kK_xxnEe9l7Bmtr3iMOCDFRiTVfWNwq1KyTnkU3mzBSbkuzaMuI5Q1PEZGmRuJMek17sd47xLStxC3LrYL7uKAwi7LDMuinCAi5lGnn9TuwypV2LEFCxQNUNeNuG_WEOhRFn2m00?></g></svg>