<?plantuml 1.2026.2?><svg xmlns="http://www.w3.org/2000/svg" xmlns:xlink="http://www.w3.org/1999/xlink" contentStyleType="text/css" data-diagram-type="ACTIVITY" height="757px" preserveAspectRatio="none" style="width:498px;height:757px;background:#FFFFFF;" version="1.1" viewBox="0 0 498 757" width="498px" zoomAndPan="magnify"><title>UML &#8212; Interaction Overview Diagram (PlantUML approximation)</title><defs/><g><g class="title" data-source-line="1"><text fill="#000000" font-family="sans-serif" font-size="14" font-weight="bold" lengthAdjust="spacing" textLength="455.4462" x="20" y="34.9659">UML &#8212; Interaction Overview Diagram (PlantUML approximation)</text></g><ellipse cx="276.8517" cy="60.0679" fill="#222222" rx="10" ry="10" style="stroke:#222222;stroke-width:1;"/><rect fill="none" height="143.7561" style="stroke:#000000;stroke-width:1.5;" width="199.5652" x="177.0692" y="80.0679"/><path d="M317.2826,80.0679 L317.2826,92.1358 L307.2826,102.1358 L177.0692,102.1358" fill="none" style="stroke:#000000;stroke-width:1.5;"/><text fill="#000000" font-family="sans-serif" font-size="14" lengthAdjust="spacing" textLength="130.2135" x="180.0692" y="96.0339">ref: Login Sequence</text><rect fill="#F1F1F1" height="36.3441" rx="12.5" ry="12.5" style="stroke:#181818;stroke-width:0.5;" width="179.5652" x="187.0692" y="119.1358"/><text fill="#000000" font-family="sans-serif" font-size="12" lengthAdjust="spacing" textLength="159.5652" x="197.0692" y="141.9639">Customer enters credentials</text><rect fill="#F1F1F1" height="36.3441" rx="12.5" ry="12.5" style="stroke:#181818;stroke-width:0.5;" width="100.6406" x="226.5315" y="175.4799"/><text fill="#000000" font-family="sans-serif" font-size="12" lengthAdjust="spacing" textLength="80.6406" x="236.5315" y="198.308">Validate token</text><polygon fill="#F1F1F1" points="238.066,243.8241,315.6375,243.8241,327.6375,255.8241,315.6375,267.8241,238.066,267.8241,226.066,255.8241,238.066,243.8241" style="stroke:#181818;stroke-width:0.5;"/><text fill="#000000" font-family="sans-serif" font-size="11" lengthAdjust="spacing" textLength="77.5714" x="238.066" y="260.092">Authenticated?</text><text fill="#000000" font-family="sans-serif" font-size="11" lengthAdjust="spacing" textLength="17.0829" x="208.9832" y="252.6011">yes</text><text fill="#000000" font-family="sans-serif" font-size="11" lengthAdjust="spacing" textLength="13.4529" x="327.6375" y="252.6011">no</text><rect fill="none" height="158.7561" style="stroke:#000000;stroke-width:1.5;" width="224.5952" x="69.8852" y="277.8241"/><path d="M284.4804,277.8241 L284.4804,289.892 L274.4804,299.892 L69.8852,299.892" fill="none" style="stroke:#000000;stroke-width:1.5;"/><text fill="#000000" font-family="sans-serif" font-size="14" lengthAdjust="spacing" textLength="204.5952" x="72.8852" y="293.79">ref: Browse Products Sequence</text><rect fill="#F1F1F1" height="36.3441" rx="12.5" ry="12.5" style="stroke:#181818;stroke-width:0.5;" width="116.8167" x="123.7744" y="316.892"/><text fill="#000000" font-family="sans-serif" font-size="12" lengthAdjust="spacing" textLength="96.8167" x="133.7744" y="339.7201">Search catalogue</text><rect fill="#F1F1F1" height="36.3441" rx="12.5" ry="12.5" style="stroke:#181818;stroke-width:0.5;" width="101.9366" x="131.2145" y="388.2361"/><text fill="#000000" font-family="sans-serif" font-size="12" lengthAdjust="spacing" textLength="81.9366" x="141.2145" y="411.0642">Render results</text><rect fill="none" height="200.1003" style="stroke:#000000;stroke-width:1.5;" width="190.7293" x="86.8181" y="448.1822"/><path d="M267.5474,448.1822 L267.5474,460.2501 L257.5474,470.2501 L86.8181,470.2501" fill="none" style="stroke:#000000;stroke-width:1.5;"/><text fill="#000000" font-family="sans-serif" font-size="14" lengthAdjust="spacing" textLength="170.7293" x="89.8181" y="464.1481">ref: Place Order Sequence</text><rect fill="#F1F1F1" height="36.3441" rx="12.5" ry="12.5" style="stroke:#181818;stroke-width:0.5;" width="82.0405" x="141.1625" y="487.2501"/><text fill="#000000" font-family="sans-serif" font-size="12" lengthAdjust="spacing" textLength="62.0405" x="151.1625" y="510.0782">Add to cart</text><rect fill="#F1F1F1" height="36.3441" rx="12.5" ry="12.5" style="stroke:#181818;stroke-width:0.5;" width="72.9444" x="145.7106" y="543.5942"/><text fill="#000000" font-family="sans-serif" font-size="12" lengthAdjust="spacing" textLength="52.9444" x="155.7106" y="566.4223">Checkout</text><rect fill="#F1F1F1" height="36.3441" rx="12.5" ry="12.5" style="stroke:#181818;stroke-width:0.5;" width="40.1121" x="162.1267" y="599.9383"/><text fill="#000000" font-family="sans-serif" font-size="12" lengthAdjust="spacing" textLength="20.1121" x="172.1267" y="622.7664">Pay</text><rect fill="#F1F1F1" height="36.3441" rx="12.5" ry="12.5" style="stroke:#181818;stroke-width:0.5;" width="126.4888" x="118.9384" y="668.2824"/><text fill="#000000" font-family="sans-serif" font-size="12" lengthAdjust="spacing" textLength="106.4888" x="128.9384" y="691.1105">Show confirmation</text><ellipse cx="182.1828" cy="735.6266" fill="none" rx="11" ry="11" style="stroke:#222222;stroke-width:1;"/><ellipse cx="182.1828" cy="735.6266" fill="#222222" rx="6" ry="6" style="stroke:#222222;stroke-width:1;"/><rect fill="#F1F1F1" height="36.3441" rx="12.5" ry="12.5" style="stroke:#181818;stroke-width:0.5;" width="114.0807" x="314.4804" y="277.8241"/><text fill="#000000" font-family="sans-serif" font-size="12" lengthAdjust="spacing" textLength="94.0807" x="324.4804" y="300.6522">Show login error</text><ellipse cx="371.5207" cy="360.1682" fill="none" rx="11" ry="11" style="stroke:#222222;stroke-width:1;"/><ellipse cx="371.5207" cy="360.1682" fill="#222222" rx="6" ry="6" style="stroke:#222222;stroke-width:1;"/><line style="stroke:#181818;stroke-width:1;" x1="276.8517" x2="276.8517" y1="155.4799" y2="175.4799"/><polygon fill="#181818" points="272.8517,165.4799,276.8517,175.4799,280.8517,165.4799,276.8517,169.4799" style="stroke:#181818;stroke-width:1;"/><line style="stroke:#181818;stroke-width:1;" x1="276.8517" x2="276.8517" y1="70.0679" y2="119.1358"/><polygon fill="#181818" points="272.8517,109.1358,276.8517,119.1358,280.8517,109.1358,276.8517,113.1358" style="stroke:#181818;stroke-width:1;"/><line style="stroke:#181818;stroke-width:1;" x1="182.1828" x2="182.1828" y1="353.2361" y2="388.2361"/><polygon fill="#181818" points="178.1828,378.2361,182.1828,388.2361,186.1828,378.2361,182.1828,382.2361" style="stroke:#181818;stroke-width:1;"/><line style="stroke:#181818;stroke-width:1;" x1="182.1828" x2="182.1828" y1="523.5942" y2="543.5942"/><polygon fill="#181818" points="178.1828,533.5942,182.1828,543.5942,186.1828,533.5942,182.1828,537.5942" style="stroke:#181818;stroke-width:1;"/><line style="stroke:#181818;stroke-width:1;" x1="182.1828" x2="182.1828" y1="579.9383" y2="599.9383"/><polygon fill="#181818" points="178.1828,589.9383,182.1828,599.9383,186.1828,589.9383,182.1828,593.9383" style="stroke:#181818;stroke-width:1;"/><line style="stroke:#181818;stroke-width:1;" x1="182.1828" x2="182.1828" y1="424.5802" y2="487.2501"/><polygon fill="#181818" points="178.1828,477.2501,182.1828,487.2501,186.1828,477.2501,182.1828,481.2501" style="stroke:#181818;stroke-width:1;"/><line style="stroke:#181818;stroke-width:1;" x1="182.1828" x2="182.1828" y1="636.2824" y2="668.2824"/><polygon fill="#181818" points="178.1828,658.2824,182.1828,668.2824,186.1828,658.2824,182.1828,662.2824" style="stroke:#181818;stroke-width:1;"/><line style="stroke:#181818;stroke-width:1;" x1="182.1828" x2="182.1828" y1="704.6266" y2="724.6266"/><polygon fill="#181818" points="178.1828,714.6266,182.1828,724.6266,186.1828,714.6266,182.1828,718.6266" style="stroke:#181818;stroke-width:1;"/><line style="stroke:#181818;stroke-width:1;" x1="371.5207" x2="371.5207" y1="314.1682" y2="349.1682"/><polygon fill="#181818" points="367.5207,339.1682,371.5207,349.1682,375.5207,339.1682,371.5207,343.1682" style="stroke:#181818;stroke-width:1;"/><line style="stroke:#181818;stroke-width:1;" x1="226.066" x2="182.1828" y1="255.8241" y2="255.8241"/><line style="stroke:#181818;stroke-width:1;" x1="182.1828" x2="182.1828" y1="255.8241" y2="316.892"/><polygon fill="#181818" points="178.1828,306.892,182.1828,316.892,186.1828,306.892,182.1828,310.892" style="stroke:#181818;stroke-width:1;"/><line style="stroke:#181818;stroke-width:1;" x1="327.6375" x2="371.5207" y1="255.8241" y2="255.8241"/><line style="stroke:#181818;stroke-width:1;" x1="371.5207" x2="371.5207" y1="255.8241" y2="277.8241"/><polygon fill="#181818" points="367.5207,267.8241,371.5207,277.8241,375.5207,267.8241,371.5207,271.8241" style="stroke:#181818;stroke-width:1;"/><line style="stroke:#181818;stroke-width:1;" x1="276.8517" x2="276.8517" y1="211.8241" y2="243.8241"/><polygon fill="#181818" points="272.8517,233.8241,276.8517,243.8241,280.8517,233.8241,276.8517,237.8241" style="stroke:#181818;stroke-width:1;"/><?plantuml-src RPB1JW8n48RlVOe95-4W3m07WtWnmK0awhcsisn3juFJBWin93w4J-YJE8K55BrjE___pJ-TJIvvXAU72NnzVC9zICZQ94S1fclajSC6xfnUiAwWE_Cwf2pLgnNJnbKw2tjANVqoKckCKBaDvCkrIrieF3NGk5G2On4X4KHygp4OZ7qXlE0FBCBQwPFrshO9LfgJoptY452RydmXW8PgRo4GLzhxBRmAJpg88kEEhQ15zPMAISnAdH3GaLm3cD321PYt-WwyAu31k8w9AcJ0F6S4msZbqsaVXxd-hBspkK-Y9OQXsYdb2kYEwbHccP6IlUb1Fa5tYx4dfil6jqnDH9WnsTgaU151cinHiymiCErfKUFmSFs8mKeonbZxj8-p-uSkkvFffvobVyWZQ_C-Z7XQwBX4iwJwU9pfxH4yc9UoHqEXS7pu0N95dcUbq4l-Rg3UIURtZudCn6TLiAxu1W00?></g></svg>