<?plantuml 1.2026.2?><svg xmlns="http://www.w3.org/2000/svg" xmlns:xlink="http://www.w3.org/1999/xlink" contentStyleType="text/css" data-diagram-type="DESCRIPTION" height="507px" preserveAspectRatio="none" style="width:330px;height:507px;background:#FFFFFF;" version="1.1" viewBox="0 0 330 507" width="330px" zoomAndPan="magnify"><title>Information Structure Viewpoint</title><defs/><g><g class="title" data-source-line="2"><text fill="#000000" font-family="sans-serif" font-size="14" font-weight="bold" lengthAdjust="spacing" textLength="229.9211" x="43.2259" y="24.9659">Information Structure Viewpoint</text></g><!--entity customer--><g class="entity" data-qualified-name="customer" data-source-line="146" id="ent0002"><rect fill="#FFFFCC" height="55.3441" rx="0.5" ry="0.5" style="stroke:#181818;stroke-width:0.5;" width="140" x="182" y="180.0679"/><path d="M294.05,193.7779 A0.5001,0.5001 0 0 0 293.5498,194.2776 L293.5498,206.4856 A0.5001,0.5001 0 0 0 294.05,206.9853 L312.103,206.9853 A0.5001,0.5001 0 0 0 312.6032,206.4856 L312.6032,194.2776 A0.5001,0.5001 0 0 0 312.103,193.7779 M294.5497,194.7779 L311.6027,194.7779 L311.6027,196.863 L294.5497,196.7741 M294.5497,197.7741 L311.6027,197.863 L311.6027,205.985 L294.5497,205.985" fill="#000000"/><text fill="#000000" font-family="Verdana" font-size="12" lengthAdjust="spacing" textLength="55.2844" x="224.3578" y="221.896">Customer</text></g><!--entity order--><g class="entity" data-qualified-name="order" data-source-line="146" id="ent0003"><rect fill="#FFFFCC" height="55.3441" rx="0.5" ry="0.5" style="stroke:#181818;stroke-width:0.5;" width="140" x="182" y="313.0679"/><path d="M294.05,326.7779 A0.5001,0.5001 0 0 0 293.5498,327.2776 L293.5498,339.4856 A0.5001,0.5001 0 0 0 294.05,339.9853 L312.103,339.9853 A0.5001,0.5001 0 0 0 312.6032,339.4856 L312.6032,327.2776 A0.5001,0.5001 0 0 0 312.103,326.7779 M294.5497,327.7779 L311.6027,327.7779 L311.6027,329.863 L294.5497,329.7741 M294.5497,330.7741 L311.6027,330.863 L311.6027,338.985 L294.5497,338.985" fill="#000000"/><text fill="#000000" font-family="Verdana" font-size="12" lengthAdjust="spacing" textLength="33.4323" x="235.2839" y="354.896">Order</text></g><!--entity invoice--><g class="entity" data-qualified-name="invoice" data-source-line="146" id="ent0004"><rect fill="#FFFFCC" height="55.3441" rx="0.5" ry="0.5" style="stroke:#181818;stroke-width:0.5;" width="140" x="29" y="446.0679"/><path d="M141.05,459.7779 A0.5001,0.5001 0 0 0 140.5498,460.2776 L140.5498,472.4856 A0.5001,0.5001 0 0 0 141.05,472.9853 L159.103,472.9853 A0.5001,0.5001 0 0 0 159.6032,472.4856 L159.6032,460.2776 A0.5001,0.5001 0 0 0 159.103,459.7779 M141.5497,460.7779 L158.6027,460.7779 L158.6027,462.863 L141.5497,462.7741 M141.5497,463.7741 L158.6027,463.863 L158.6027,471.985 L141.5497,471.985" fill="#000000"/><text fill="#000000" font-family="Verdana" font-size="12" lengthAdjust="spacing" textLength="40.4643" x="78.7679" y="487.896">Invoice</text></g><!--entity custRecord--><g class="entity" data-qualified-name="custRecord" data-source-line="195" id="ent0005"><rect fill="#C2F0FF" height="55.3441" rx="0.5" ry="0.5" style="stroke:#181818;stroke-width:0.5;" width="144.8729" x="179.5" y="47.0679"/><path d="M296.4229,60.7779 A0.5001,0.5001 0 0 0 295.9227,61.2776 L295.9227,73.4856 A0.5001,0.5001 0 0 0 296.4229,73.9853 L314.4759,73.9853 A0.5001,0.5001 0 0 0 314.9761,73.4856 L314.9761,61.2776 A0.5001,0.5001 0 0 0 314.4759,60.7779 M296.9226,61.7779 L313.9756,61.7779 L313.9756,63.863 L296.9226,63.7741 M296.9226,64.7741 L313.9756,64.863 L313.9756,72.985 L296.9226,72.985" fill="#000000"/><text fill="#000000" font-family="Verdana" font-size="12" lengthAdjust="spacing" textLength="55.2844" x="189.5" y="88.896">Customer</text><text fill="#000000" font-family="Verdana" font-size="12" lengthAdjust="spacing" textLength="3.12" x="244.7844" y="88.896">&#160;</text><text fill="#000000" font-family="Verdana" font-size="12" lengthAdjust="spacing" textLength="39.5883" x="247.9044" y="88.896">Record</text><text fill="#000000" font-family="Verdana" font-size="12" lengthAdjust="spacing" textLength="3.12" x="287.4927" y="88.896">&#160;</text><text fill="#000000" font-family="Verdana" font-size="12" lengthAdjust="spacing" textLength="23.7601" x="290.6127" y="88.896">(DB)</text></g><!--entity invoicePdf--><g class="entity" data-qualified-name="invoicePdf" data-source-line="152" id="ent0006"><rect fill="#FFFFCC" height="55.3441" rx="0.5" ry="0.5" style="stroke:#181818;stroke-width:0.5;" width="140" x="7" y="313.0679"/><path d="M119,326.8679 A0.5001,0.5001 0 0 0 118.4998,327.3681 L118.4998,339.5751 A0.5001,0.5001 0 0 0 118.7013,339.9756 C120.5727,341.3707 122.0681,341.8871 123.3537,341.7843 C124.6393,341.6815 125.6193,340.9617 126.4569,340.1374 C127.2945,339.3131 128.0279,338.3679 128.8361,337.6652 C129.6443,336.9626 130.4837,336.5028 131.6308,336.5361 C133.0642,336.5777 133.9591,337.0392 134.7014,337.6766 C135.4438,338.3141 136.0114,339.1508 136.6796,339.907 A0.5001,0.5001 0 0 0 137.5529,339.5773 C137.5559,337.1287 137.5529,327.3683 137.5529,327.3683 A0.5001,0.5001 0 0 0 137.0527,326.8681 M119.5002,327.8679 L136.5532,327.8679 C136.5533,328.0755 136.5535,328.8665 136.5537,329.9536 L119.5007,329.8642 M119.5002,330.8641 L136.5532,330.9514 C136.5536,333.2653 136.5539,336.3346 136.5527,338.2646 C136.1773,337.8036 135.8564,337.3527 135.3512,336.919 C134.478,336.1692 133.3071,335.5839 131.66,335.5361 C130.2198,335.4943 129.0922,336.1156 128.1796,336.9091 C127.267,337.7025 126.5242,338.6681 125.7555,339.4247 C124.9868,340.1813 124.2316,340.7113 123.2735,340.7879 C122.3575,340.8611 121.1423,340.4696 119.5001,339.2919" fill="#000000"/><text fill="#000000" font-family="Verdana" font-size="12" lengthAdjust="spacing" textLength="40.4643" x="44.0838" y="354.896">Invoice</text><text fill="#000000" font-family="Verdana" font-size="12" lengthAdjust="spacing" textLength="3.12" x="84.548" y="354.896">&#160;</text><text fill="#000000" font-family="Verdana" font-size="12" lengthAdjust="spacing" textLength="22.2482" x="87.6681" y="354.896">PDF</text></g><!--link customer to order--><g class="link" data-entity-1="ent0002" data-entity-2="ent0003" data-link-type="association" data-source-line="349" id="lnk7"><path d="M252,235.0779 C252,257.6579 252,289.9479 252,312.6479" fill="none" id="customer-order" style="stroke:#000000;stroke-width:1;"/><text fill="#000000" font-family="Verdana" font-size="12" lengthAdjust="spacing" textLength="3.12" x="253" y="278.896">&#160;</text></g><!--link order to invoice--><g class="link" data-entity-1="ent0003" data-entity-2="ent0004" data-link-type="association" data-source-line="349" id="lnk8"><path d="M221.04,368.0779 C194.58,390.7279 156.7,423.1679 130.18,445.8779" fill="none" id="order-invoice" style="stroke:#000000;stroke-width:1;"/><text fill="#000000" font-family="Verdana" font-size="12" lengthAdjust="spacing" textLength="3.12" x="185" y="411.896">&#160;</text></g><!--link custRecord to customer--><g class="link" data-entity-1="ent0005" data-entity-2="ent0002" data-link-type="extension" data-source-line="349" id="lnk9"><path d="M252,102.0779 C252,124.6579 252,138.9479 252,161.6479" fill="none" id="custRecord-to-customer" style="stroke:#000000;stroke-width:1;stroke-dasharray:1,3;"/><polygon fill="none" points="252,179.6479,258,161.6479,246,161.6479,252,179.6479" style="stroke:#000000;stroke-width:1;"/><text fill="#000000" font-family="Verdana" font-size="12" lengthAdjust="spacing" textLength="3.12" x="253" y="145.896">&#160;</text></g><!--link invoicePdf to invoice--><g class="link" data-entity-1="ent0006" data-entity-2="ent0004" data-link-type="extension" data-source-line="349" id="lnk10"><path d="M81.45,368.0779 C85.24,390.6579 87.6905,405.1962 91.5005,427.8962" fill="none" id="invoicePdf-to-invoice" style="stroke:#000000;stroke-width:1;stroke-dasharray:1,3;"/><polygon fill="none" points="94.48,445.6479,97.4178,426.9031,85.5833,428.8894,94.48,445.6479" style="stroke:#000000;stroke-width:1;"/><text fill="#000000" font-family="Verdana" font-size="12" lengthAdjust="spacing" textLength="3.12" x="90" y="411.896">&#160;</text></g><?plantuml-src RO_12i8m44Jl_OhOKmk2Fo12jGYUb0fUIzokk1AJacmK_7fZsz12FMNOVPcPNP06vHiKQsdXJa_9k2gYsYHCh50SzCtOC22ZnPcj1_OMnONmtHhId2HRxqYZS_Nn-a3W3BnZyqIx5Ebka6a-eunjEkJuU__iIRyC0GRYqAl056sh2BegTIbPJW8hXE0uYHJzH6JbDf_QLzXQTAYviuanf-Os9ebJkGzVaWfLNJXdW7fsFAmhdy-0uQR1izzNA1LzHeDOD9hDgMcbQFK5?></g></svg>